# xmcd
#
# Track frame offsets:
#	182
#	15205
#	30865
#	44477
#	56625
#	69195
#	80845
#	92697
#	104820
#	116027
#	127657
#	139640
#	149515
#	164915
#	176727
#
# Disc length: 2482
#
# Revision: 4
# Processed by: cddbd v1.5.1PL0 Copyright (c) Steve Scherf et al.
# Submitted via: audiograbber 1.82.02
# Normalized: r3:DSETVAR1
#
DISCID=ce09b00f
DTITLE=Various Artist - All-Time Country Hits 1
DYEAR=1993
DGENRE=Country
TTITLE0=Jeannie C. Riley - Harper Valley P.T.A.
TTITLE1=Cal Smith - Country bumpkin
TTITLE2=David Houston - Almost persuaded
TTITLE3=Jody Miller - Queen of the house
TTITLE4=Porter Wagner - The carroll county accident
TTITLE5=Sammi Smith - Help me make it through the night
TTITLE6=Henson Cargill - Skip a rope
TTITLE7=Wanda Jackson - Right or wrong
TTITLE8=Stonewall Jackson - Waterloo
TTITLE9=Wilma Lee and Stoney Cooper - Big midnight special
TTITLE10=Skeeter Davis - The end of the world
TTITLE11=Ned Miller - From a Jack to a king
TTITLE12=Al Hirt and Ace Cannon - Paper roses
TTITLE13=Bonnie Guitar - Dark moon
TTITLE14=Charley Pride - Kiss an Angel good mornin' (live)
EXTD=Enviado por: Alfredo armendariz de Alfred's Sound Systems de Nuevo Laredo, Tam. Mx 88250
EXTT0=
EXTT1=
EXTT2=
EXTT3=
EXTT4=
EXTT5=
EXTT6=
EXTT7=
EXTT8=
EXTT9=
EXTT10=
EXTT11=
EXTT12=
EXTT13=
EXTT14=
PLAYORDER=
